<svg width="31" height="31" viewBox="0 0 31 31" fill="none" xmlns="http://www.w3.org/2000/svg">
<path d="M8.6 17.2C9.17021 17.2 9.71707 16.9735 10.1203 16.5703C10.5235 16.1671 10.75 15.6202 10.75 15.05C10.75 14.4798 10.5235 13.9329 10.1203 13.5297C9.71707 13.1265 9.17021 12.9 8.6 12.9C8.02978 12.9 7.48292 13.1265 7.07972 13.5297C6.67652 13.9329 6.45 14.4798 6.45 15.05C6.45 15.6202 6.67652 16.1671 7.07972 16.5703C7.48292 16.9735 8.02978 17.2 8.6 17.2ZM10.75 21.5C10.75 22.0702 10.5235 22.6171 10.1203 23.0203C9.71707 23.4235 9.17021 23.65 8.6 23.65C8.02978 23.65 7.48292 23.4235 7.07972 23.0203C6.67652 22.6171 6.45 22.0702 6.45 21.5C6.45 20.9298 6.67652 20.3829 7.07972 19.9797C7.48292 19.5765 8.02978 19.35 8.6 19.35C9.17021 19.35 9.71707 19.5765 10.1203 19.9797C10.5235 20.3829 10.75 20.9298 10.75 21.5ZM15.05 17.2C15.6202 17.2 16.1671 16.9735 16.5703 16.5703C16.9735 16.1671 17.2 15.6202 17.2 15.05C17.2 14.4798 16.9735 13.9329 16.5703 13.5297C16.1671 13.1265 15.6202 12.9 15.05 12.9C14.4798 12.9 13.9329 13.1265 13.5297 13.5297C13.1265 13.9329 12.9 14.4798 12.9 15.05C12.9 15.6202 13.1265 16.1671 13.5297 16.5703C13.9329 16.9735 14.4798 17.2 15.05 17.2ZM17.2 21.5C17.2 22.0702 16.9735 22.6171 16.5703 23.0203C16.1671 23.4235 15.6202 23.65 15.05 23.65C14.4798 23.65 13.9329 23.4235 13.5297 23.0203C13.1265 22.6171 12.9 22.0702 12.9 21.5C12.9 20.9298 13.1265 20.3829 13.5297 19.9797C13.9329 19.5765 14.4798 19.35 15.05 19.35C15.6202 19.35 16.1671 19.5765 16.5703 19.9797C16.9735 20.3829 17.2 20.9298 17.2 21.5ZM21.5 17.2C22.0702 17.2 22.6171 16.9735 23.0203 16.5703C23.4235 16.1671 23.65 15.6202 23.65 15.05C23.65 14.4798 23.4235 13.9329 23.0203 13.5297C22.6171 13.1265 22.0702 12.9 21.5 12.9C20.9298 12.9 20.3829 13.1265 19.9797 13.5297C19.5765 13.9329 19.35 14.4798 19.35 15.05C19.35 15.6202 19.5765 16.1671 19.9797 16.5703C20.3829 16.9735 20.9298 17.2 21.5 17.2ZM30.1 5.375C30.1 3.94946 29.5337 2.58231 28.5257 1.5743C27.5177 0.566293 26.1505 0 24.725 0H5.375C3.94946 0 2.58231 0.566293 1.5743 1.5743C0.566293 2.58231 0 3.94946 0 5.375V24.725C0 26.1505 0.566293 27.5177 1.5743 28.5257C2.58231 29.5337 3.94946 30.1 5.375 30.1H24.725C26.1505 30.1 27.5177 29.5337 28.5257 28.5257C29.5337 27.5177 30.1 26.1505 30.1 24.725V5.375ZM2.15 8.6H27.95V24.725C27.95 25.5803 27.6102 26.4006 27.0054 27.0054C26.4006 27.6102 25.5803 27.95 24.725 27.95H5.375C4.51968 27.95 3.69938 27.6102 3.09458 27.0054C2.48977 26.4006 2.15 25.5803 2.15 24.725V8.6ZM5.375 2.15H24.725C25.5803 2.15 26.4006 2.48977 27.0054 3.09458C27.6102 3.69938 27.95 4.51968 27.95 5.375V6.45H2.15V5.375C2.15 4.51968 2.48977 3.69938 3.09458 3.09458C3.69938 2.48977 4.51968 2.15 5.375 2.15Z" fill="white"/>
</svg>
