<svg width="36" height="32" viewBox="0 0 36 32" fill="none" xmlns="http://www.w3.org/2000/svg">
<path d="M15.001 1.15039C22.5585 1.15056 28.8494 6.37221 28.8496 12.999C28.8496 19.626 22.5586 24.8485 15.001 24.8486H14.998C13.0695 24.8535 11.1563 24.5064 9.35547 23.8242L9.06934 23.7158L8.76758 23.7637L1.99219 24.8408H1.99121C1.86768 24.8604 1.74113 24.8488 1.62402 24.8066C1.50673 24.7644 1.40321 24.6931 1.32324 24.6016C1.24344 24.5102 1.18948 24.4012 1.16504 24.2852C1.14065 24.169 1.14676 24.0481 1.18262 23.9346V23.9336L2.68262 19.1748L2.83594 18.6885L2.57812 18.249C1.64554 16.6526 1.15415 14.8418 1.15137 12.999C1.1516 6.3721 7.44331 1.15039 15.001 1.15039Z" stroke="white" stroke-width="2.3"/>
<path d="M28.3915 10C31.7349 11.996 33.999 15.3276 33.999 19.2661C33.9965 21.0403 33.523 22.7826 32.6259 24.3182L33.9258 28.4432C34.0085 28.7049 34.0223 28.9832 33.966 29.2516C33.9096 29.5201 33.7849 29.7698 33.6037 29.9771C33.4226 30.1845 33.1909 30.3425 32.9308 30.4363C32.6706 30.5301 32.3906 30.5565 32.1173 30.513L26.2448 29.5795C24.5703 30.2138 22.7922 30.5368 20.9995 30.5323C16.0456 30.5323 11.5361 28.0728 9.3638 24.3182" stroke="white" stroke-width="2.3"/>
</svg>
