<svg width="21" height="20" viewBox="0 0 21 20" fill="none" xmlns="http://www.w3.org/2000/svg">
<path d="M13.4367 18.75C12.4243 18.75 11.4346 18.4568 10.5929 17.9074C9.75108 17.3579 9.095 16.5771 8.70757 15.6634C8.32015 14.7498 8.21878 13.7445 8.41629 12.7746C8.6138 11.8046 9.10131 10.9137 9.81718 10.2145C10.533 9.51521 11.4451 9.039 12.4381 8.84608C13.431 8.65315 14.4602 8.75217 15.3955 9.1306C16.3308 9.50904 17.1303 10.1499 17.6927 10.9722C18.2552 11.7944 18.5554 12.7611 18.5554 13.75C18.5554 15.0761 18.0161 16.3479 17.0562 17.2855C16.0962 18.2232 14.7942 18.75 13.4367 18.75ZM13.4367 10C12.6774 10 11.9351 10.2199 11.3038 10.632C10.6725 11.044 10.1804 11.6297 9.88985 12.3149C9.59928 13.0002 9.52325 13.7542 9.67138 14.4816C9.81951 15.209 10.1851 15.8772 10.722 16.4017C11.2589 16.9261 11.943 17.2833 12.6877 17.4279C13.4324 17.5726 14.2043 17.4984 14.9058 17.2146C15.6073 16.9307 16.2069 16.4501 16.6287 15.8334C17.0506 15.2167 17.2757 14.4917 17.2757 13.75C17.2757 12.7554 16.8712 11.8016 16.1513 11.0984C15.4313 10.3951 14.4548 10 13.4367 10Z" fill="white"/>
<path d="M14.454 15.625L12.7968 14.0062V11.25H14.0765V13.4938L15.3562 14.7438L14.454 15.625Z" fill="white"/>
<path d="M17.9156 3.75C17.9156 3.41848 17.7807 3.10054 17.5407 2.86612C17.3008 2.6317 16.9753 2.5 16.6359 2.5H14.0765V1.25H12.7968V2.5H7.67809V1.25H6.39841V2.5H3.83904C3.49965 2.5 3.17415 2.6317 2.93417 2.86612C2.69418 3.10054 2.55936 3.41848 2.55936 3.75V16.25C2.55936 16.5815 2.69418 16.8995 2.93417 17.1339C3.17415 17.3683 3.49965 17.5 3.83904 17.5H6.39841V16.25H3.83904V3.75H6.39841V5H7.67809V3.75H12.7968V5H14.0765V3.75H16.6359V7.5H17.9156V3.75Z" fill="white"/>
</svg>
