<svg width="29" height="34" viewBox="0 0 29 34" fill="none" xmlns="http://www.w3.org/2000/svg">
<path fill-rule="evenodd" clip-rule="evenodd" d="M5.47619 1H23.381C24.5681 1 25.7066 1.4716 26.5461 2.31105C27.3855 3.15049 27.8571 4.28903 27.8571 5.47619V27.8571C27.8571 29.0443 27.3855 30.1828 26.5461 31.0223C25.7066 31.8617 24.5681 32.3333 23.381 32.3333H5.47619C4.28903 32.3333 3.15049 31.8617 2.31105 31.0223C1.4716 30.1828 1 29.0443 1 27.8571V5.47619C1 4.28903 1.4716 3.15049 2.31105 2.31105C3.15049 1.4716 4.28903 1 5.47619 1V1Z" stroke="white" stroke-width="2" stroke-linecap="round" stroke-linejoin="round"/>
<path d="M7.71429 32.3333V1" stroke="white" stroke-width="2" stroke-linecap="round" stroke-linejoin="round"/>
<path d="M11.4286 12.6667H23.4286" stroke="white"/>
<path d="M11.4286 16.6667H23.4286" stroke="white"/>
<path d="M11.4286 20.6667H23.4286" stroke="white"/>
</svg>
