<svg width="20" height="18" viewBox="0 0 20 18" fill="none" xmlns="http://www.w3.org/2000/svg">
<path d="M18.125 0H1.875C0.839453 0 0 0.839453 0 1.875V15.625C0 16.6605 0.839453 17.5 1.875 17.5H18.125C19.1605 17.5 20 16.6605 20 15.625V1.875C20 0.839453 19.1605 0 18.125 0ZM17.8906 15.625H2.10938C2.04721 15.625 1.9876 15.6003 1.94365 15.5564C1.89969 15.5124 1.875 15.4528 1.875 15.3906V2.10938C1.875 2.04721 1.89969 1.9876 1.94365 1.94365C1.9876 1.89969 2.04721 1.875 2.10938 1.875H17.8906C17.9528 1.875 18.0124 1.89969 18.0564 1.94365C18.1003 1.9876 18.125 2.04721 18.125 2.10938V15.3906C18.125 15.4528 18.1003 15.5124 18.0564 15.5564C18.0124 15.6003 17.9528 15.625 17.8906 15.625ZM16.25 12.0312V12.9688C16.25 13.2276 16.0401 13.4375 15.7812 13.4375H7.96875C7.70988 13.4375 7.5 13.2276 7.5 12.9688V12.0312C7.5 11.7724 7.70988 11.5625 7.96875 11.5625H15.7812C16.0401 11.5625 16.25 11.7724 16.25 12.0312ZM16.25 8.28125V9.21875C16.25 9.47762 16.0401 9.6875 15.7812 9.6875H7.96875C7.70988 9.6875 7.5 9.47762 7.5 9.21875V8.28125C7.5 8.02238 7.70988 7.8125 7.96875 7.8125H15.7812C16.0401 7.8125 16.25 8.02238 16.25 8.28125ZM16.25 4.53125V5.46875C16.25 5.72762 16.0401 5.9375 15.7812 5.9375H7.96875C7.70988 5.9375 7.5 5.72762 7.5 5.46875V4.53125C7.5 4.27238 7.70988 4.0625 7.96875 4.0625H15.7812C16.0401 4.0625 16.25 4.27238 16.25 4.53125ZM6.40625 5C6.40625 5.77664 5.77664 6.40625 5 6.40625C4.22336 6.40625 3.59375 5.77664 3.59375 5C3.59375 4.22336 4.22336 3.59375 5 3.59375C5.77664 3.59375 6.40625 4.22336 6.40625 5ZM6.40625 8.75C6.40625 9.52664 5.77664 10.1562 5 10.1562C4.22336 10.1562 3.59375 9.52664 3.59375 8.75C3.59375 7.97336 4.22336 7.34375 5 7.34375C5.77664 7.34375 6.40625 7.97336 6.40625 8.75ZM6.40625 12.5C6.40625 13.2766 5.77664 13.9062 5 13.9062C4.22336 13.9062 3.59375 13.2766 3.59375 12.5C3.59375 11.7234 4.22336 11.0938 5 11.0938C5.77664 11.0938 6.40625 11.7234 6.40625 12.5Z" fill="white"/>
</svg>
