<svg width="31" height="28" viewBox="0 0 31 28" fill="none" xmlns="http://www.w3.org/2000/svg">
<path d="M5.77496 7.35005C5.77496 7.07157 5.87637 6.8045 6.05687 6.60759C6.23738 6.41067 6.48219 6.30005 6.73746 6.30005H20.2125C20.4677 6.30005 20.7125 6.41067 20.893 6.60759C21.0736 6.8045 21.175 7.07157 21.175 7.35005C21.175 7.62853 21.0736 7.8956 20.893 8.09251C20.7125 8.28942 20.4677 8.40005 20.2125 8.40005H6.73746C6.48219 8.40005 6.23738 8.28942 6.05687 8.09251C5.87637 7.8956 5.77496 7.62853 5.77496 7.35005Z" fill="white"/>
<path d="M16.3625 12.5999C16.1072 12.5999 15.8624 12.7105 15.6819 12.9074C15.5014 13.1043 15.4 13.3714 15.4 13.6499C15.4 13.9283 15.5014 14.1954 15.6819 14.3923C15.8624 14.5892 16.1072 14.6999 16.3625 14.6999H20.2125C20.4677 14.6999 20.7125 14.5892 20.8931 14.3923C21.0736 14.1954 21.175 13.9283 21.175 13.6499C21.175 13.3714 21.0736 13.1043 20.8931 12.9074C20.7125 12.7105 20.4677 12.5999 20.2125 12.5999H16.3625Z" fill="white"/>
<path d="M15.4 19.9501C15.4 19.6717 15.5014 19.4046 15.6819 19.2077C15.8624 19.0108 16.1072 18.9001 16.3625 18.9001H20.2125C20.4677 18.9001 20.7125 19.0108 20.8931 19.2077C21.0736 19.4046 21.175 19.6717 21.175 19.9501C21.175 20.2286 21.0736 20.4957 20.8931 20.6926C20.7125 20.8895 20.4677 21.0001 20.2125 21.0001H16.3625C16.1072 21.0001 15.8624 20.8895 15.6819 20.6926C15.5014 20.4957 15.4 20.2286 15.4 19.9501Z" fill="white"/>
<path d="M6.73746 12.5999C6.48219 12.5999 6.23738 12.7105 6.05687 12.9074C5.87637 13.1043 5.77496 13.3714 5.77496 13.6499V19.9499C5.77496 20.2283 5.87637 20.4954 6.05687 20.6923C6.23738 20.8892 6.48219 20.9999 6.73746 20.9999H12.5125C12.7677 20.9999 13.0125 20.8892 13.1931 20.6923C13.3736 20.4954 13.475 20.2283 13.475 19.9499V13.6499C13.475 13.3714 13.3736 13.1043 13.1931 12.9074C13.0125 12.7105 12.7677 12.5999 12.5125 12.5999H6.73746ZM7.69996 18.8999V14.6999H11.55V18.8999H7.69996Z" fill="white"/>
<path d="M0 4.2C0 3.08609 0.405623 2.0178 1.12764 1.23015C1.84965 0.442499 2.82892 0 3.85 0H23.1C24.1211 0 25.1003 0.442499 25.8223 1.23015C26.5444 2.0178 26.95 3.08609 26.95 4.2V6.3C27.9711 6.3 28.9503 6.7425 29.6723 7.53015C30.3944 8.3178 30.8 9.38609 30.8 10.5V22.05C30.8 23.4424 30.293 24.7777 29.3904 25.7623C28.4879 26.7469 27.2638 27.3 25.9875 27.3H4.8125C3.53614 27.3 2.31207 26.7469 1.40955 25.7623C0.50703 24.7777 0 23.4424 0 22.05V4.2ZM25.025 4.2C25.025 3.64305 24.8222 3.1089 24.4612 2.71508C24.1002 2.32125 23.6105 2.1 23.1 2.1H3.85C3.33946 2.1 2.84983 2.32125 2.48882 2.71508C2.12781 3.1089 1.925 3.64305 1.925 4.2V22.05C1.925 22.8854 2.22922 23.6866 2.77073 24.2774C3.31224 24.8681 4.04669 25.2 4.8125 25.2H25.9875C26.7533 25.2 27.4877 24.8681 28.0293 24.2774C28.5708 23.6866 28.875 22.8854 28.875 22.05V10.5C28.875 9.94305 28.6722 9.4089 28.3112 9.01508C27.9502 8.62125 27.4605 8.4 26.95 8.4V22.05C26.95 22.3285 26.8486 22.5956 26.6681 22.7925C26.4876 22.9894 26.2428 23.1 25.9875 23.1C25.7322 23.1 25.4874 22.9894 25.3069 22.7925C25.1264 22.5956 25.025 22.3285 25.025 22.05V4.2Z" fill="white"/>
</svg>
