<svg width="34" height="34" viewBox="0 0 34 34" fill="none" xmlns="http://www.w3.org/2000/svg">
<path d="M10.7917 30.8333H4.625C4.21612 30.8333 3.824 30.6709 3.53488 30.3818C3.24576 30.0927 3.08333 29.7005 3.08333 29.2917V23.125C3.08333 22.7161 2.92091 22.324 2.63179 22.0349C2.34267 21.7458 1.95054 21.5833 1.54167 21.5833C1.13279 21.5833 0.740662 21.7458 0.451544 22.0349C0.162425 22.324 0 22.7161 0 23.125V29.2917C0 30.5183 0.487275 31.6947 1.35463 32.562C2.22199 33.4294 3.39837 33.9167 4.625 33.9167H10.7917C11.2005 33.9167 11.5927 33.7542 11.8818 33.4651C12.1709 33.176 12.3333 32.7839 12.3333 32.375C12.3333 31.9661 12.1709 31.574 11.8818 31.2849C11.5927 30.9958 11.2005 30.8333 10.7917 30.8333ZM32.375 21.5833C31.9661 21.5833 31.574 21.7458 31.2849 22.0349C30.9958 22.324 30.8333 22.7161 30.8333 23.125V29.2917C30.8333 29.7005 30.6709 30.0927 30.3818 30.3818C30.0927 30.6709 29.7005 30.8333 29.2917 30.8333H23.125C22.7161 30.8333 22.324 30.9958 22.0349 31.2849C21.7458 31.574 21.5833 31.9661 21.5833 32.375C21.5833 32.7839 21.7458 33.176 22.0349 33.4651C22.324 33.7542 22.7161 33.9167 23.125 33.9167H29.2917C30.5183 33.9167 31.6947 33.4294 32.562 32.562C33.4294 31.6947 33.9167 30.5183 33.9167 29.2917V23.125C33.9167 22.7161 33.7542 22.324 33.4651 22.0349C33.176 21.7458 32.7839 21.5833 32.375 21.5833ZM29.2917 0H23.125C22.7161 0 22.324 0.162425 22.0349 0.451544C21.7458 0.740662 21.5833 1.13279 21.5833 1.54167C21.5833 1.95054 21.7458 2.34267 22.0349 2.63179C22.324 2.92091 22.7161 3.08333 23.125 3.08333H29.2917C29.7005 3.08333 30.0927 3.24576 30.3818 3.53488C30.6709 3.824 30.8333 4.21612 30.8333 4.625V10.7917C30.8333 11.2005 30.9958 11.5927 31.2849 11.8818C31.574 12.1709 31.9661 12.3333 32.375 12.3333C32.7839 12.3333 33.176 12.1709 33.4651 11.8818C33.7542 11.5927 33.9167 11.2005 33.9167 10.7917V4.625C33.9167 3.39837 33.4294 2.22199 32.562 1.35463C31.6947 0.487275 30.5183 0 29.2917 0ZM1.54167 12.3333C1.95054 12.3333 2.34267 12.1709 2.63179 11.8818C2.92091 11.5927 3.08333 11.2005 3.08333 10.7917V4.625C3.08333 4.21612 3.24576 3.824 3.53488 3.53488C3.824 3.24576 4.21612 3.08333 4.625 3.08333H10.7917C11.2005 3.08333 11.5927 2.92091 11.8818 2.63179C12.1709 2.34267 12.3333 1.95054 12.3333 1.54167C12.3333 1.13279 12.1709 0.740662 11.8818 0.451544C11.5927 0.162425 11.2005 0 10.7917 0H4.625C3.39837 0 2.22199 0.487275 1.35463 1.35463C0.487275 2.22199 0 3.39837 0 4.625V10.7917C0 11.2005 0.162425 11.5927 0.451544 11.8818C0.740662 12.1709 1.13279 12.3333 1.54167 12.3333ZM13.875 6.16667H7.70833C7.29946 6.16667 6.90733 6.32909 6.61821 6.61821C6.32909 6.90733 6.16667 7.29946 6.16667 7.70833V13.875C6.16667 14.2839 6.32909 14.676 6.61821 14.9651C6.90733 15.2542 7.29946 15.4167 7.70833 15.4167H13.875C14.2839 15.4167 14.676 15.2542 14.9651 14.9651C15.2542 14.676 15.4167 14.2839 15.4167 13.875V7.70833C15.4167 7.29946 15.2542 6.90733 14.9651 6.61821C14.676 6.32909 14.2839 6.16667 13.875 6.16667ZM12.3333 12.3333H9.25V9.25H12.3333V12.3333ZM20.0417 15.4167H26.2083C26.6172 15.4167 27.0093 15.2542 27.2985 14.9651C27.5876 14.676 27.75 14.2839 27.75 13.875V7.70833C27.75 7.29946 27.5876 6.90733 27.2985 6.61821C27.0093 6.32909 26.6172 6.16667 26.2083 6.16667H20.0417C19.6328 6.16667 19.2407 6.32909 18.9515 6.61821C18.6624 6.90733 18.5 7.29946 18.5 7.70833V13.875C18.5 14.2839 18.6624 14.676 18.9515 14.9651C19.2407 15.2542 19.6328 15.4167 20.0417 15.4167ZM21.5833 9.25H24.6667V12.3333H21.5833V9.25ZM13.875 18.5H7.70833C7.29946 18.5 6.90733 18.6624 6.61821 18.9515C6.32909 19.2407 6.16667 19.6328 6.16667 20.0417V26.2083C6.16667 26.6172 6.32909 27.0093 6.61821 27.2985C6.90733 27.5876 7.29946 27.75 7.70833 27.75H13.875C14.2839 27.75 14.676 27.5876 14.9651 27.2985C15.2542 27.0093 15.4167 26.6172 15.4167 26.2083V20.0417C15.4167 19.6328 15.2542 19.2407 14.9651 18.9515C14.676 18.6624 14.2839 18.5 13.875 18.5ZM12.3333 24.6667H9.25V21.5833H12.3333V24.6667ZM20.0417 23.125C20.4505 23.125 20.8427 22.9626 21.1318 22.6735C21.4209 22.3843 21.5833 21.9922 21.5833 21.5833C21.9922 21.5833 22.3843 21.4209 22.6735 21.1318C22.9626 20.8427 23.125 20.4505 23.125 20.0417C23.125 19.6328 22.9626 19.2407 22.6735 18.9515C22.3843 18.6624 21.9922 18.5 21.5833 18.5H20.0417C19.6328 18.5 19.2407 18.6624 18.9515 18.9515C18.6624 19.2407 18.5 19.6328 18.5 20.0417V21.5833C18.5 21.9922 18.6624 22.3843 18.9515 22.6735C19.2407 22.9626 19.6328 23.125 20.0417 23.125ZM26.2083 18.5C25.7995 18.5 25.4073 18.6624 25.1182 18.9515C24.8291 19.2407 24.6667 19.6328 24.6667 20.0417V24.6667C24.2578 24.6667 23.8657 24.8291 23.5765 25.1182C23.2874 25.4073 23.125 25.7995 23.125 26.2083C23.125 26.6172 23.2874 27.0093 23.5765 27.2985C23.8657 27.5876 24.2578 27.75 24.6667 27.75H26.2083C26.6172 27.75 27.0093 27.5876 27.2985 27.2985C27.5876 27.0093 27.75 26.6172 27.75 26.2083V20.0417C27.75 19.6328 27.5876 19.2407 27.2985 18.9515C27.0093 18.6624 26.6172 18.5 26.2083 18.5ZM20.0417 24.6667C19.7368 24.6667 19.4387 24.7571 19.1852 24.9265C18.9316 25.0959 18.734 25.3367 18.6173 25.6184C18.5007 25.9001 18.4701 26.21 18.5296 26.5091C18.5891 26.8082 18.7359 27.0828 18.9515 27.2985C19.1671 27.5141 19.4418 27.6609 19.7409 27.7204C20.04 27.7799 20.3499 27.7493 20.6316 27.6326C20.9133 27.516 21.1541 27.3184 21.3235 27.0648C21.4929 26.8113 21.5833 26.5132 21.5833 26.2083C21.5833 25.7995 21.4209 25.4073 21.1318 25.1182C20.8427 24.8291 20.4505 24.6667 20.0417 24.6667Z" fill="white"/>
</svg>
