<svg width="18" height="21" viewBox="0 0 18 21" fill="none" xmlns="http://www.w3.org/2000/svg">
<path d="M12.5 10.5469C12.5 10.2361 12.3765 9.938 12.1568 9.71823C11.937 9.49846 11.6389 9.375 11.3281 9.375H5.85938C5.54857 9.375 5.2505 9.49846 5.03073 9.71823C4.81097 9.938 4.6875 10.2361 4.6875 10.5469V10.9375C4.6875 12.4773 6.14062 14.0625 8.59375 14.0625C11.0469 14.0625 12.5 12.4773 12.5 10.9375V10.5469ZM10.7422 6.44531C10.7422 5.87551 10.5158 5.32905 10.1129 4.92614C9.71001 4.52323 9.16355 4.29688 8.59375 4.29688C8.02395 4.29688 7.47749 4.52323 7.07457 4.92614C6.67167 5.32905 6.44531 5.87551 6.44531 6.44531C6.44531 7.01511 6.67167 7.56158 7.07457 7.96449C7.47749 8.3674 8.02395 8.59375 8.59375 8.59375C9.16355 8.59375 9.71001 8.3674 10.1129 7.96449C10.5158 7.56158 10.7422 7.01511 10.7422 6.44531ZM15.625 17.9688H1.62891C1.70972 18.1973 1.85944 18.3952 2.05743 18.5351C2.25542 18.6751 2.49193 18.7501 2.73438 18.75H16.4062C16.6135 18.75 16.8122 18.8323 16.9587 18.9788C17.1052 19.1253 17.1875 19.324 17.1875 19.5312C17.1875 19.7385 17.1052 19.9372 16.9587 20.0837C16.8122 20.2302 16.6135 20.3125 16.4062 20.3125H2.73438C2.00917 20.3125 1.31367 20.0244 0.80088 19.5116C0.288085 18.9988 0 18.3033 0 17.5781V2.73438C0 2.00917 0.288085 1.31367 0.80088 0.80088C1.31367 0.288085 2.00917 0 2.73438 0H14.4531C15.1783 0 15.8738 0.288085 16.3866 0.80088C16.8994 1.31367 17.1875 2.00917 17.1875 2.73438V16.4062C17.1875 16.8207 17.0229 17.2181 16.7299 17.5111C16.4368 17.8041 16.0394 17.9688 15.625 17.9688ZM1.5625 2.73438V16.4062H15.625V2.73438C15.625 2.42357 15.5015 2.1255 15.2818 1.90573C15.062 1.68596 14.7639 1.5625 14.4531 1.5625H2.73438C2.42357 1.5625 2.1255 1.68596 1.90573 1.90573C1.68596 2.1255 1.5625 2.42357 1.5625 2.73438Z" fill="white"/>
</svg>
