<svg width="31" height="31" viewBox="0 0 31 31" fill="none" xmlns="http://www.w3.org/2000/svg">
<path d="M11.5 28.7501H7C5.4087 28.7501 3.88258 28.1004 2.75736 26.9439C1.63214 25.7874 1 24.2189 1 22.5834V8.70841C1 7.07291 1.63214 5.5044 2.75736 4.34792C3.88258 3.19145 5.4087 2.54175 7 2.54175H23.5C25.0913 2.54175 26.6174 3.19145 27.7426 4.34792C28.8679 5.5044 29.5 7.07291 29.5 8.70841V13.3334" stroke="white" stroke-width="2" stroke-linecap="round" stroke-linejoin="round"/>
<path d="M10 1V4.08333" stroke="white" stroke-width="2" stroke-linecap="round" stroke-linejoin="round"/>
<path d="M20.5 1V4.08333" stroke="white" stroke-width="2" stroke-linecap="round" stroke-linejoin="round"/>
<path d="M1 10.25H29.5" stroke="white" stroke-width="2" stroke-linecap="round" stroke-linejoin="round"/>
<path d="M29.9424 20.0744L30.7625 19.2229C31.0792 18.9105 31.0792 18.6839 30.7625 18.3715L29.9424 17.5201L29.1222 16.6687C28.7389 16.325 28.6354 16.3406 28.3021 16.6687L27.482 17.5201L29.9424 20.0744Z" fill="white"/>
<path d="M26.6618 18.3715L16.8201 26.886L16.1952 29.4813C16.1068 29.8483 16.4415 30.1772 16.8069 30.0823L19.2806 29.4403L29.1222 20.9259L26.6618 18.3715Z" fill="white"/>
</svg>
